<svg xmlns="http://www.w3.org/2000/svg" viewBox="0 0 127.75 33.44"><defs><style>.cls-1{fill:#7f1084;}.cls-2{fill:#fff;}.cls-3{fill:#f19db5;}.cls-4{fill:#404040;}</style></defs><g id="レイヤー_2" data-name="レイヤー 2"><g id="design"><polygon class="cls-1" points="30.44 5.12 30.44 31.42 5.04 31.42 3.09 33.44 32.58 33.44 32.58 2.9 30.44 5.12"/><polygon class="cls-2" points="0.4 30.36 29.32 0.42 29.32 30.36 0.4 30.36"/><path class="cls-3" d="M29.15.84V30.19H.8ZM29.48,0,0,30.53H29.48Z"/><path class="cls-3" d="M22.68,22.76l-3.8,5.14h3.06v1.25h.74V27.9h.79v-.21h-.79Zm-.74,4.93H19.3l2.64-3.58Z"/><path class="cls-3" d="M26.08,25a2.08,2.08,0,0,0-1.47.62h0c-.07-1.54.63-2.78,1.81-2.64a1.73,1.73,0,0,1,1.39,1.41l.21,0a2,2,0,0,0-2-1.61,2,2,0,0,0-1.72,1.14A6.4,6.4,0,0,0,23.92,27a2.16,2.16,0,0,0,2.16,2.25,2.15,2.15,0,0,0,0-4.3m0,4.08c-.77,0-1.39-.81-1.43-1.84v-.09h0c0-1.07.64-1.94,1.43-1.94s1.43.87,1.43,1.94-.64,1.93-1.43,1.93"/><path class="cls-3" d="M110.84,3.37,99.2,19.12h9.39V23h2.25V19.12h2.41v-.65h-2.41Zm-2.25,15.1h-8.1l8.1-11Z"/><path class="cls-3" d="M121.28,10.21a6.39,6.39,0,0,0-4.53,1.89h0c-.22-4.72,1.93-8.52,5.54-8.08a5.3,5.3,0,0,1,4.26,4.32l.65-.11a6,6,0,0,0-6-5,6.13,6.13,0,0,0-5.27,3.52c-1,2-1.48,4.63-1.26,9.7.2,4.41,3.17,6.88,6.64,6.88a6.58,6.58,0,0,0,0-13.16m-.18,12.51c-2.34,0-4.26-2.48-4.37-5.65a2.62,2.62,0,0,0,0-.28h0c0-3.27,2-5.93,4.37-5.93s4.38,2.66,4.38,5.93-2,5.93-4.38,5.93"/><line class="cls-3" x1="44.81" y1="18.53" x2="44.93" y2="18.62"/><line class="cls-3" x1="44.81" y1="18.53" x2="44.94" y2="18.62"/><path class="cls-3" d="M52.84,8.25V7.89l-1-.94-1,.9H50V3.63l.81-.78h-2.2v5h-3v.47h2.86a25.42,25.42,0,0,1-3.58,10.21l.13.09A19.42,19.42,0,0,0,48.56,13V23.32H50v-15h2.89Z"/><path class="cls-3" d="M52.67,12.82c0,.06,0,.11,0,.17a.8.8,0,0,1-.1.41.58.58,0,0,1-.29.24.45.45,0,0,1-.16,0,.58.58,0,0,1-.46-.26,1.63,1.63,0,0,1-.17-.5c0-.19-.1-.43-.18-.69a5.41,5.41,0,0,0-1.2-2l.1-.11a4.33,4.33,0,0,1,2.32,2.27,2.13,2.13,0,0,1,.13.46"/><polygon class="cls-3" points="54.61 8.36 54.61 6.47 57.74 6.47 57.74 6 54.61 6 54.61 4.06 55.43 3.6 54.53 3.6 53.23 3.6 53.23 11.22 54.61 11.22 54.61 8.82 57.74 8.82 57.74 8.36 54.61 8.36"/><rect class="cls-3" x="54.61" y="10.76" width="3.13" height="0.46"/><rect class="cls-3" x="51.74" y="15.66" width="14.81" height="0.46"/><rect class="cls-3" x="54.61" y="3.6" width="3.13" height="0.46"/><rect class="cls-3" x="57.66" y="3.6" width="1.21" height="7.63"/><polyline class="cls-3" points="58.87 3.6 58.07 2.85 57.3 3.6"/><polygon class="cls-3" points="53.23 3.6 54.53 3.61 53.23 2.85 53.23 3.6"/><polygon class="cls-3" points="65.56 14.73 64.61 15.66 66.56 15.66 65.56 14.73"/><path class="cls-3" d="M52.68,13.8l.08.13a8.69,8.69,0,0,0,3.18-2.17H54.35a5,5,0,0,1-1.67,2"/><path class="cls-3" d="M61.56,16c-.26,1.76-2.61,5.78-9.71,6.76v.19c4.6-.29,9.83-1.68,11.54-6.95Z"/><polygon class="cls-3" points="55.13 19.75 53.68 19.75 56.98 14.11 58.65 14.11 55.13 19.75"/><path class="cls-3" d="M55.13,19.75a17.48,17.48,0,0,1,11.08,3.32l.31-.19a18.4,18.4,0,0,0-10.73-4.45"/><polygon class="cls-3" points="61.56 8.36 61.56 6.47 64.69 6.47 64.69 6 61.56 6 61.56 4.06 62.38 3.6 61.49 3.6 60.18 3.6 60.18 11.22 61.56 11.22 61.56 8.82 64.69 8.82 64.69 8.36 61.56 8.36"/><rect class="cls-3" x="61.56" y="10.76" width="3.13" height="0.46"/><rect class="cls-3" x="61.56" y="3.6" width="3.13" height="0.46"/><rect class="cls-3" x="64.62" y="3.6" width="1.21" height="7.63"/><polyline class="cls-3" points="65.83 3.6 65.02 2.85 64.26 3.6"/><polygon class="cls-3" points="60.18 3.6 61.48 3.61 60.18 2.85 60.18 3.6"/><path class="cls-3" d="M80.32,15l-.1-.11c-1.09.66-2.07,1.22-3,1.67V10h2.84V9.53l-1-.95-1,.91h-.9V2.85H75.85V9.49H72.77V10h3.08V17.2a15.2,15.2,0,0,1-2.49.73h-.09l.41,1.18.08,0A16.47,16.47,0,0,0,80.32,15"/><path class="cls-3" d="M88.89,18.33A19.37,19.37,0,0,0,93,9.51h0V9.14l-1-1L91,9.1H83.29c.07-1.34.11-2.77.11-4.28H93V4.38l-1-.94-.95.9H81.57v.4a1.15,1.15,0,0,1,0,.17c0,.33,0,1.14,0,2.24,0,.58,0,1.24,0,1.95h0v.47h0a45.15,45.15,0,0,1-.75,7,13.86,13.86,0,0,1-2.37,5.95l.12.1A14.92,14.92,0,0,0,82,16.94a28.93,28.93,0,0,0,1.29-7.37H91a17.15,17.15,0,0,1-2.91,7.72,16.24,16.24,0,0,1-2.4-5.59l0-.09-1.49.55,0,.06a16.05,16.05,0,0,0,3.06,6.2,20.54,20.54,0,0,1-5,4.46l.08.13A18.93,18.93,0,0,0,88,19.26a15.17,15.17,0,0,0,6.87,3.92l.07-.13a21.38,21.38,0,0,1-6.07-4.72"/><path class="cls-3" d="M59.46,13.8l-.08.13a8.81,8.81,0,0,1-3.19-2.17h1.6a5,5,0,0,0,1.67,2"/><path class="cls-3" d="M59.63,13.8l.08.13a8.81,8.81,0,0,0,3.19-2.17H61.3a5,5,0,0,1-1.67,2"/><path class="cls-3" d="M66.41,13.8l-.08.13a8.69,8.69,0,0,1-3.18-2.17h1.59a5,5,0,0,0,1.67,2"/><path class="cls-4" d="M47.15,33a1.64,1.64,0,0,1-.67-.77,3.59,3.59,0,0,1,0-2.58,1.67,1.67,0,0,1,.67-.78,2,2,0,0,1,2,0,1.67,1.67,0,0,1,.67.78,3.59,3.59,0,0,1,0,2.58,1.64,1.64,0,0,1-.67.77,2,2,0,0,1-2,0Zm1.94-.66a2.39,2.39,0,0,0,.34-1.4,2.45,2.45,0,0,0-.34-1.41,1.09,1.09,0,0,0-1-.49,1.08,1.08,0,0,0-1,.49A2.45,2.45,0,0,0,46.82,31a2.39,2.39,0,0,0,.34,1.4,1.08,1.08,0,0,0,1,.49A1.09,1.09,0,0,0,49.09,32.35Z"/><path class="cls-4" d="M51.94,33.14a.21.21,0,0,1,0-.12.18.18,0,0,1,.07-.16.29.29,0,0,1,.19-.06h.15V29.12l-.15,0A.41.41,0,0,1,52,29a.2.2,0,0,1-.06-.16c0-.08,0-.13.09-.13h3v.93c0,.07,0,.11-.09.11s-.16-.11-.2-.32l-.07-.29H52.9v1.68h1.45l.07-.28c0-.13.09-.2.16-.2s.09,0,.09.1v1.18c0,.06,0,.1-.09.1s-.13-.07-.16-.2l-.07-.29H52.9V32.8l.27.09a.3.3,0,0,1,.14.08.17.17,0,0,1,0,.12.08.08,0,0,1-.09.09H52A.1.1,0,0,1,51.94,33.14Z"/><path class="cls-4" d="M57.12,33.14a.21.21,0,0,1,0-.12.2.2,0,0,1,.07-.16.29.29,0,0,1,.19-.06h.15V29.12l-.15,0a.41.41,0,0,1-.21-.09.2.2,0,0,1-.06-.16c0-.08,0-.13.09-.13h3.06v.93a.1.1,0,0,1-.1.11c-.09,0-.15-.11-.2-.32l-.06-.29H58.09v1.68h1.45l.07-.28c0-.13.08-.2.15-.2s.09,0,.09.1v1.18c0,.06,0,.1-.09.1s-.12-.07-.15-.2l-.07-.29H58.09V32.8l.26.09a.26.26,0,0,1,.14.08.17.17,0,0,1,0,.12c0,.06,0,.09-.08.09H57.21A.1.1,0,0,1,57.12,33.14Z"/><path class="cls-4" d="M62.31,33.14a.21.21,0,0,1,0-.12.18.18,0,0,1,.07-.16.27.27,0,0,1,.19-.06h.14V29.09h-.29a.09.09,0,0,1-.08,0,.23.23,0,0,1,0-.13.2.2,0,0,1,.07-.16.27.27,0,0,1,.19-.06h1.1c.06,0,.08,0,.08.1a.2.2,0,0,1-.18.2l-.28.08V32.8l.28.09a.2.2,0,0,1,.18.2c0,.06,0,.09-.08.09H62.39A.09.09,0,0,1,62.31,33.14Z"/><path class="cls-4" d="M66.55,33a1.83,1.83,0,0,1-.71-.79,2.88,2.88,0,0,1-.25-1.27,2.94,2.94,0,0,1,.25-1.27,1.77,1.77,0,0,1,.69-.78,1.79,1.79,0,0,1,1-.27,2,2,0,0,1,.75.13,1.72,1.72,0,0,1,.58.35v.79c0,.08,0,.12-.11.12a.13.13,0,0,1-.12-.07.57.57,0,0,1-.07-.2l-.1-.45a1.21,1.21,0,0,0-.36-.18,1.75,1.75,0,0,0-.48-.06,1.24,1.24,0,0,0-.74.22,1.43,1.43,0,0,0-.5.64,2.85,2.85,0,0,0-.17,1,2.69,2.69,0,0,0,.18,1,1.46,1.46,0,0,0,.52.64,1.31,1.31,0,0,0,.76.22,1.45,1.45,0,0,0,.91-.25l.09-.07.08,0a.15.15,0,0,1,.11.06.2.2,0,0,1,0,.13.36.36,0,0,1-.18.28,1.88,1.88,0,0,1-.47.22,2.17,2.17,0,0,1-.65.09A1.94,1.94,0,0,1,66.55,33Z"/><path class="cls-4" d="M70.9,33.14a.21.21,0,0,1,0-.12.2.2,0,0,1,.07-.16.29.29,0,0,1,.19-.06h.15V29.09H71a.1.1,0,0,1-.09,0,.23.23,0,0,1,0-.13.24.24,0,0,1,.07-.16.29.29,0,0,1,.19-.06h1.1c.06,0,.09,0,.09.1s-.07.17-.19.2l-.27.08V32.8l.27.09c.12,0,.19.1.19.2a.08.08,0,0,1-.09.09H71A.1.1,0,0,1,70.9,33.14Z"/><path class="cls-4" d="M74.23,33.14a.21.21,0,0,1,0-.12.2.2,0,0,1,.07-.16.3.3,0,0,1,.2-.06h.13L76,28.7h.65L78,32.8l.24.07a.3.3,0,0,1,.14.07.21.21,0,0,1,0,.13c0,.08,0,.11-.08.11H77a.1.1,0,0,1-.09,0,.21.21,0,0,1,0-.12.2.2,0,0,1,.07-.16.3.3,0,0,1,.2-.06h.21l-.34-1H75.38l-.33,1,.33.09a.34.34,0,0,1,.16.08.18.18,0,0,1,0,.11c0,.07,0,.1-.08.1H74.32A.1.1,0,0,1,74.23,33.14Zm2.65-1.79-.68-2.1-.68,2.1Z"/><path class="cls-4" d="M80.25,33.06a.21.21,0,0,1,.07-.17.41.41,0,0,1,.2-.09l.16,0V29.09h-.3a.1.1,0,0,1-.09,0,.23.23,0,0,1,0-.13.24.24,0,0,1,.07-.16.3.3,0,0,1,.2-.06h1.13c.06,0,.08,0,.08.1a.2.2,0,0,1-.18.2l-.3.08v3.68H83l.1-.4a1,1,0,0,1,.09-.24.11.11,0,0,1,.1-.08c.07,0,.1,0,.1.11v1h-3C80.28,33.18,80.25,33.14,80.25,33.06Z"/><path class="cls-4" d="M88.48,29.09h-.29a.09.09,0,0,1-.08,0,.23.23,0,0,1,0-.13.2.2,0,0,1,.07-.16.27.27,0,0,1,.19-.06h1.15c.06,0,.09,0,.09.1s-.08.18-.22.21l-.3.07.87,3.21a2.56,2.56,0,0,1,0,.27c0,.1,0,.16,0,.19h0l0-.19a2.56,2.56,0,0,1,0-.27L91,28.7h.57l1,3.59a2.56,2.56,0,0,1,0,.27c0,.1,0,.16,0,.19h0l0-.19a2.56,2.56,0,0,1,0-.27l.8-3.2h-.37a.08.08,0,0,1-.08,0,.23.23,0,0,1,0-.13.2.2,0,0,1,.07-.16.27.27,0,0,1,.19-.06h1s.08,0,.08.1-.06.15-.17.19l-.29.1L92.9,33.18h-.7l-.87-3.26a1.61,1.61,0,0,1-.06-.33,1.84,1.84,0,0,1,0-.24h0a1.85,1.85,0,0,0,0,.24q0,.18-.06.33l-.82,3.26h-.7Z"/><path class="cls-4" d="M96.3,33.06c0-.14.09-.22.27-.26l.16,0V29.12l-.16,0a.41.41,0,0,1-.2-.09.24.24,0,0,1-.07-.17c0-.08,0-.13.1-.13h3.16v.91c0,.07,0,.11-.1.11s-.08,0-.12-.08a1,1,0,0,1-.08-.25l-.05-.27h-1.9v1.57h1.56l.07-.28c0-.13.09-.19.16-.19s.09,0,.09.1v1.15c0,.06,0,.1-.09.1s-.12-.07-.16-.2l-.07-.27H97.31v1.67h2l0-.29a1,1,0,0,1,.09-.25.12.12,0,0,1,.11-.07c.06,0,.09,0,.09.11v.91H96.4C96.34,33.18,96.3,33.14,96.3,33.06Z"/><path class="cls-4" d="M101.69,33.06a.24.24,0,0,1,.06-.17.46.46,0,0,1,.21-.09l.15,0V29.12l-.15,0c-.18,0-.27-.12-.27-.26s0-.13.09-.13h1.78a1.43,1.43,0,0,1,1,.31,1.13,1.13,0,0,1,.35.88,1,1,0,0,1-.15.56.94.94,0,0,1-.43.36v0a1.18,1.18,0,0,1,.6.41,1.14,1.14,0,0,1,.21.7,1.15,1.15,0,0,1-.36.91,1.37,1.37,0,0,1-1,.32h-2Q101.69,33.18,101.69,33.06Zm1.92-2.39a.63.63,0,0,0,.5-.21.79.79,0,0,0,.19-.56.81.81,0,0,0-.2-.57.74.74,0,0,0-.57-.21h-.84v1.55Zm.09,2.1a.81.81,0,0,0,.62-.22.86.86,0,0,0,.21-.62.88.88,0,0,0-.21-.62.74.74,0,0,0-.59-.23h-1v1.69Z"/><path class="cls-4" d="M110.91,33.15a2,2,0,0,1-.65-.3V32c0-.07,0-.11.1-.11a.16.16,0,0,1,.13.07,1,1,0,0,1,.09.25l.08.4a1.26,1.26,0,0,0,.42.19,2,2,0,0,0,.53.07,1.29,1.29,0,0,0,.68-.16.55.55,0,0,0,.28-.52.82.82,0,0,0-.1-.4,1,1,0,0,0-.32-.3,7.06,7.06,0,0,0-.64-.33,3.1,3.1,0,0,1-.92-.58,1,1,0,0,1-.31-.79,1,1,0,0,1,.39-.85,1.59,1.59,0,0,1,1-.29,2,2,0,0,1,.73.13,1.63,1.63,0,0,1,.58.33v.83a.11.11,0,0,1,0,.08.09.09,0,0,1-.07,0,.14.14,0,0,1-.13-.07.5.5,0,0,1-.09-.25l-.09-.4a1.35,1.35,0,0,0-.38-.19,1.88,1.88,0,0,0-.49-.06,1,1,0,0,0-.58.15.62.62,0,0,0-.11.85.93.93,0,0,0,.31.27c.13.08.32.18.59.31l.12.06a3.62,3.62,0,0,1,.64.37,1.3,1.3,0,0,1,.38.43,1.23,1.23,0,0,1,.13.61,1,1,0,0,1-.41.88,1.89,1.89,0,0,1-1.08.29A2.65,2.65,0,0,1,110.91,33.15Z"/><path class="cls-4" d="M115.1,33.14a.21.21,0,0,1,0-.12.2.2,0,0,1,.07-.16.29.29,0,0,1,.19-.06h.15V29.09h-.29a.1.1,0,0,1-.09,0,.23.23,0,0,1,0-.13.24.24,0,0,1,.07-.16.29.29,0,0,1,.19-.06h1.11s.08,0,.08.1-.07.17-.19.2l-.27.08V32.8l.27.09c.12,0,.19.1.19.2s0,.09-.08.09h-1.25A.1.1,0,0,1,115.1,33.14Z"/><path class="cls-4" d="M119.41,33.14a.21.21,0,0,1,0-.12.2.2,0,0,1,.07-.16.29.29,0,0,1,.19-.06h.15V29.13h-.94l-.07.33a.83.83,0,0,1-.07.21.15.15,0,0,1-.12.07c-.07,0-.11,0-.11-.12V28.7h3.21v.92a.11.11,0,0,1-.12.12.14.14,0,0,1-.12-.08.57.57,0,0,1-.07-.2l-.07-.33h-.94V32.8l.27.09c.12,0,.19.1.19.2s0,.09-.08.09H119.5A.1.1,0,0,1,119.41,33.14Z"/><path class="cls-4" d="M123.63,33.06c0-.14.09-.22.27-.26l.15,0V29.12l-.15,0a.46.46,0,0,1-.21-.09.24.24,0,0,1-.06-.17c0-.08,0-.13.09-.13h3.17v.91a.1.1,0,0,1-.1.11.14.14,0,0,1-.12-.08.73.73,0,0,1-.08-.25l-.06-.27h-1.9v1.57h1.57l.07-.28c0-.13.09-.19.15-.19s.09,0,.09.1v1.15c0,.06,0,.1-.09.1s-.11-.07-.15-.2l-.07-.27h-1.57v1.67h2l.06-.29a.73.73,0,0,1,.08-.25.13.13,0,0,1,.11-.07c.07,0,.1,0,.1.11v.91h-3.24Q123.63,33.18,123.63,33.06Z"/></g></g></svg>